<?xml version="1.0" encoding="utf-8"?>
<!-- Generator: Adobe Illustrator 24.1.1, SVG Export Plug-In . SVG Version: 6.00 Build 0)  -->
<svg version="1.1" id="Layer_1" xmlns="http://www.w3.org/2000/svg" xmlns:xlink="http://www.w3.org/1999/xlink" x="0px" y="0px"
	 viewBox="0 0 512 512" style="enable-background:new 0 0 512 512;" xml:space="preserve">
<g id="XMLID_1_">
	<path id="XMLID_3_" d="M190.7,360.8V151.2c0-29.2,23.2-52.4,52.4-52.4h242.3V72.2c0-29.2-23.2-52.4-52.4-52.4H54.1
		C24.9,19.8,0,42.1,0,71.3v369.4c0,29.2,24.9,51.5,54.1,51.5H433c29.2,0,52.4-24.1,52.4-52.4v-26.6H243.1
		C213.9,413.2,190.7,390,190.7,360.8L190.7,360.8z"/>
	<path id="XMLID_6_" d="M242.3,170.1v171.8c0,11.2,8.6,19.8,19.8,19.8h230.2c11.2,0,19.8-8.6,19.8-19.8V170.1
		c0-11.2-8.6-19.8-19.8-19.8H262C251.7,150.3,242.3,158.9,242.3,170.1z M337.6,295.5c-24.1,1.7-43-18-42.1-42.1
		c0.9-19.8,17.2-35.2,36.9-36.9c24.1-1.7,43,18,42.1,42.1C372.8,278.3,356.5,293.8,337.6,295.5z"/>
</g>
</svg>
