<svg width="200" height="33" viewBox="0 0 200 33" fill="none" xmlns="http://www.w3.org/2000/svg">
  <g clip-path="url(#clip0)">
    <path d="M63.4591 16.3237C63.4591 19.1013 62.829 21.3251 61.569 22.9949C60.3089 24.6647 58.6083 25.5004 56.4672 25.5021C54.6451 25.5021 53.1737 24.8696 52.0529 23.6047V32.1077H47.2354V7.14532H51.7006L51.8658 8.91151C52.4127 8.23193 53.1093 7.68798 53.9012 7.32218C54.693 6.95637 55.5588 6.7786 56.4307 6.80277C58.6528 6.80277 60.3794 7.62796 61.6103 9.27835C62.8412 10.9287 63.4574 13.1962 63.4591 16.0807V16.3237ZM58.6464 15.9738C58.6464 14.2975 58.3492 13.0019 57.7548 12.0868C57.4818 11.651 57.0985 11.2952 56.6437 11.0554C56.1889 10.8157 55.6787 10.7004 55.165 10.7214C53.6539 10.7214 52.6157 11.2988 52.0505 12.4536V19.8391C52.6384 21.0279 53.6911 21.6223 55.2087 21.6223C57.5005 21.6223 58.6464 19.7395 58.6464 15.9738Z" fill="#2764F6" />
    <path d="M74.4034 25.5092C71.7601 25.5092 69.6085 24.6994 67.9484 23.0798C66.2882 21.4602 65.4582 19.2972 65.4582 16.5908V16.1244C65.429 14.4455 65.7882 12.7826 66.5077 11.2655C67.1546 9.89965 68.1886 8.75407 69.4813 7.9712C70.8075 7.18318 72.3264 6.77865 73.8689 6.80264C76.334 6.80264 78.2775 7.58006 79.6995 9.13489C81.1216 10.6897 81.8293 12.894 81.8229 15.7478V17.7351H70.3389C70.4476 18.819 70.9477 19.8261 71.7456 20.5678C72.5647 21.2878 73.6294 21.6653 74.7192 21.6221C76.572 21.6221 78.0216 20.95 79.0679 19.6057L81.4317 22.2538C80.6848 23.2978 79.6724 24.1231 78.4994 24.6443C77.2144 25.2309 75.8158 25.5262 74.4034 25.5092ZM73.8543 10.6897C73.4199 10.6741 72.9874 10.7529 72.5864 10.9207C72.1854 11.0884 71.8256 11.3412 71.5318 11.6615C70.9358 12.3093 70.5551 13.2358 70.3899 14.4408H77.0855V14.0569C77.0612 12.9855 76.7745 12.1571 76.2182 11.5716C75.6618 10.9861 74.8747 10.6897 73.8543 10.6897Z" fill="#2764F6" />
    <path d="M88.934 7.14534L89.0846 9.22979C90.3722 7.61179 92.0979 6.8028 94.2617 6.8028C96.1728 6.8028 97.5948 7.36966 98.5277 8.50339C99.4606 9.63712 99.9384 11.3142 99.9611 13.5347V25.1692H95.146V13.6441C95.146 12.6221 94.9241 11.8803 94.4803 11.4187C94.0357 10.9571 93.2972 10.7287 92.2647 10.7287C91.6453 10.7031 91.0311 10.8519 90.4921 11.1581C89.9531 11.4643 89.5109 11.9157 89.2158 12.4609V25.1692H84.4031V7.14534H88.934Z" fill="#2764F6" />
    <path d="M110.316 0.915588L116.545 18.5071L122.742 0.915588H129.302V25.1685H124.29V18.5386L124.79 7.09605L118.245 25.1685H114.813L108.282 7.11305L108.783 18.5313V25.1685H103.785V0.915588H110.316Z" fill="#2764F6" />
    <path d="M133.06 2.48382C133.05 2.15222 133.11 1.8223 133.236 1.51522C133.361 1.20814 133.55 0.930677 133.789 0.700626C134.346 0.248074 135.041 0.0010376 135.759 0.0010376C136.476 0.0010376 137.172 0.248074 137.729 0.700626C137.969 0.929937 138.158 1.20727 138.284 1.51453C138.409 1.82178 138.469 2.15206 138.458 2.48382C138.47 2.81797 138.412 3.15095 138.286 3.46083C138.161 3.77071 137.971 4.05045 137.729 4.2816C137.177 4.73397 136.485 4.98116 135.771 4.98116C135.057 4.98116 134.365 4.73397 133.813 4.2816C133.567 4.05261 133.373 3.77384 133.243 3.46386C133.113 3.15387 133.05 2.81978 133.06 2.48382ZM138.161 25.1698H133.344V7.14589H138.174L138.161 25.1698Z" fill="#2764F6" />
    <path d="M146.266 7.14539L146.415 9.22984C147.71 7.61832 149.438 6.80851 151.597 6.80042C153.506 6.80042 154.927 7.36161 155.86 8.48401C156.793 9.6064 157.271 11.2835 157.294 13.5153V25.1693H152.479V13.6441C152.479 12.6221 152.257 11.8803 151.813 11.4188C151.368 10.9572 150.63 10.7288 149.597 10.7288C148.978 10.7029 148.364 10.8515 147.824 11.1578C147.285 11.4641 146.843 11.9156 146.548 12.461V25.1693H141.736V7.14539H146.266Z" fill="#2764F6" />
    <path d="M166.384 2.71619V7.14503H169.465V10.6896H166.384V19.6784C166.384 20.3441 166.511 20.8211 166.766 21.1094C167.02 21.3977 167.506 21.5426 168.223 21.5442C168.698 21.5491 169.172 21.51 169.64 21.4276V25.0718C168.695 25.3604 167.712 25.5062 166.724 25.5042C163.347 25.5042 161.626 23.8036 161.559 20.4024V10.6896H158.938V7.14503H161.569V2.71619H166.384Z" fill="#2764F6" />
    <path d="M179.76 25.5093C177.117 25.5093 174.965 24.6995 173.305 23.0799C171.645 21.4602 170.815 19.2972 170.815 16.5909V16.1244C170.786 14.4456 171.145 12.7827 171.864 11.2656C172.511 9.89882 173.545 8.75235 174.838 7.96883C176.164 7.18166 177.683 6.77798 179.226 6.80271C181.691 6.80271 183.634 7.58012 185.056 9.13496C186.478 10.6898 187.186 12.8941 187.18 15.7479V17.7351H175.696C175.808 18.8151 176.309 19.8174 177.105 20.5557C177.921 21.2796 178.985 21.6614 180.076 21.6222C181.929 21.6222 183.378 20.9501 184.425 19.6058L186.788 22.2539C186.042 23.2978 185.029 24.1232 183.856 24.6444C182.571 25.2309 181.172 25.5263 179.76 25.5093ZM179.211 10.6898C178.776 10.6741 178.343 10.7529 177.942 10.9207C177.541 11.0884 177.18 11.3412 176.886 11.6616C176.29 12.3094 175.909 13.2358 175.744 14.4408H182.449V14.057C182.428 12.9864 182.139 12.158 181.582 11.5717C181.025 10.9854 180.235 10.6914 179.211 10.6898Z" fill="#2764F6" />
    <path d="M199.941 11.6619C199.368 11.5784 198.789 11.5337 198.209 11.5283C196.389 11.5283 195.195 12.1445 194.628 13.377V25.1695H189.806V7.14557H194.354L194.487 9.29561C195.453 7.63388 196.791 6.80302 198.501 6.80302C199.008 6.79982 199.514 6.87271 200 7.01924L199.941 11.6619Z" fill="#2764F6" />
    <path d="M31.0963 4.69095C32.7832 4.69143 34.4321 5.1921 35.8345 6.12964C37.2369 7.06719 38.3298 8.39952 38.975 9.95816C39.6202 11.5168 39.7888 13.2318 39.4594 14.8862C39.13 16.5407 38.3174 18.0603 37.1244 19.2529C35.9314 20.4456 34.4116 21.2577 32.7571 21.5867C31.1025 21.9156 29.3876 21.7465 27.8291 21.1009C26.2707 20.4552 24.9387 19.3619 24.0015 17.9593C23.0644 16.5566 22.5642 14.9076 22.5642 13.2207C22.5667 10.9588 23.4666 8.79037 25.0662 7.19123C26.6658 5.59208 28.8345 4.69288 31.0963 4.69095ZM31.0963 0.427307C28.5653 0.426827 26.0911 1.17694 23.9864 2.58277C21.8818 3.98861 20.2414 5.98701 19.2726 8.32523C18.3038 10.6635 18.0502 13.2365 18.5439 15.7188C19.0375 18.2012 20.2562 20.4814 22.0459 22.2711C23.8356 24.0607 26.1158 25.2795 28.5982 25.7731C31.0805 26.2668 33.6535 26.0132 35.9917 25.0444C38.33 24.0756 40.3284 22.4352 41.7342 20.3305C43.14 18.2259 43.8902 15.7516 43.8897 13.2207C43.8897 9.82765 42.5418 6.57361 40.1426 4.17439C37.7434 1.77517 34.4893 0.427307 31.0963 0.427307Z" fill="#2764F6" />
    <path d="M0.0700812 19.4814C0.00682308 19.3827 -0.0153727 19.2632 0.00822763 19.1484C0.0318279 19.0336 0.0993565 18.9325 0.196411 18.8668L8.0556 13.5585C8.0556 13.5585 8.81601 12.9608 8.0556 12.4434C7.40452 12.0012 1.88243 8.31334 0.281441 7.2371C0.224256 7.19854 0.175276 7.14903 0.137326 7.09144C0.0993759 7.03384 0.0732086 6.96931 0.0603341 6.90154C0.0474596 6.83378 0.0481329 6.76414 0.0623151 6.69665C0.0764973 6.62915 0.103908 6.56513 0.142964 6.50828L1.84356 4.03512C1.90858 3.94558 2.00496 3.88385 2.11349 3.86223C2.22201 3.84062 2.33469 3.86071 2.42905 3.91851L14.0174 11.6004C14.0174 11.6004 14.6976 12.1713 14.7268 12.9608C14.7599 13.3105 14.693 13.6624 14.5339 13.9755C14.3747 14.2886 14.1299 14.5501 13.8279 14.7295L2.45092 22.3506C2.40059 22.3843 2.34401 22.4077 2.28452 22.4192C2.22502 22.4308 2.16382 22.4303 2.1045 22.4179C2.04519 22.4054 1.98897 22.3812 1.93915 22.3467C1.88933 22.3122 1.84691 22.2681 1.81441 22.2169L0.0700812 19.4814Z" fill="#7EFBC5" />
  </g>
  <defs>
    <clipPath id="clip0">
      <rect width="200" height="32.1" fill="white" />
    </clipPath>
  </defs>
</svg>
